HIERARCHY
ROOT Hips
{
 OFFSET 0.000000 0.000000 0.000000
 CHANNELS 6 Xposition Yposition Zposition Yrotation Xrotation Zrotation
 JOINT Chest
 {
  OFFSET 0.000000 9.585900 0.002600
  CHANNELS 3 Yrotation Xrotation Zrotation
  JOINT Chest2
  {
   OFFSET 0.000000 9.601200 -0.005300
   CHANNELS 3 Yrotation Xrotation Zrotation
   JOINT Chest3
   {
    OFFSET 0.000000 9.561800 0.000000
    CHANNELS 3 Yrotation Xrotation Zrotation
    JOINT Chest4
    {
     OFFSET 0.000000 9.552100 0.000000
     CHANNELS 3 Yrotation Xrotation Zrotation
     JOINT Neck
     {
      OFFSET 0.000000 14.453000 0.000000
      CHANNELS 3 Yrotation Xrotation Zrotation
      JOINT Head
      {
       OFFSET 0.000000 8.936500 -0.011300
       CHANNELS 3 Yrotation Xrotation Zrotation
       End Site
       {
        OFFSET 0.000000 17.073600 -0.006000
       }
      }
     }
     JOINT RightCollar
     {
      OFFSET -2.921100 9.558500 0.000000
      CHANNELS 3 Yrotation Xrotation Zrotation
      JOINT RightShoulder
      {
       OFFSET -13.519700 0.000000 0.000000
       CHANNELS 3 Yrotation Xrotation Zrotation
       JOINT RightElbow
       {
        OFFSET 0.000000 -29.696600 0.000000
        CHANNELS 3 Yrotation Xrotation Zrotation
        JOINT RightWrist
        {
         OFFSET 0.000000 -24.004700 0.000000
         CHANNELS 3 Yrotation Xrotation Zrotation
         End Site
         {
          OFFSET 0.000000 -17.728500 0.000000
         }
        }
       }
      }
     }
     JOINT LeftCollar
     {
      OFFSET 2.921100 9.558500 0.000000
      CHANNELS 3 Yrotation Xrotation Zrotation
      JOINT LeftShoulder
      {
       OFFSET 13.519700 0.000000 0.000000
       CHANNELS 3 Yrotation Xrotation Zrotation
       JOINT LeftElbow
       {
        OFFSET 0.000000 -29.696600 0.000000
        CHANNELS 3 Yrotation Xrotation Zrotation
        JOINT LeftWrist
        {
         OFFSET 0.000000 -24.004700 0.000000
         CHANNELS 3 Yrotation Xrotation Zrotation
         End Site
         {
          OFFSET 0.000000 -17.728500 0.000000
         }
        }
       }
      }
     }
    }
   }
  }
 }
 JOINT RightHip
 {
  OFFSET -7.771700 -0.012900 -0.001300
  CHANNELS 3 Yrotation Xrotation Zrotation
  JOINT RightKnee
  {
   OFFSET 0.000000 -40.869800 0.001200
   CHANNELS 3 Yrotation Xrotation Zrotation
   JOINT RightAnkle
   {
    OFFSET 0.000000 -39.717900 0.002100
    CHANNELS 3 Yrotation Xrotation Zrotation
    JOINT RightToe
    {
     OFFSET 0.000000 -4.965400 11.033500
     CHANNELS 3 Yrotation Xrotation Zrotation
     End Site
     {
      OFFSET 0.000000 -1.423100 5.872300
     }
    }
   }
  }
 }
 JOINT LeftHip
 {
  OFFSET 7.771700 -0.012900 -0.001300
  CHANNELS 3 Yrotation Xrotation Zrotation
  JOINT LeftKnee
  {
   OFFSET 0.000000 -40.869800 0.001200
   CHANNELS 3 Yrotation Xrotation Zrotation
   JOINT LeftAnkle
   {
    OFFSET 0.000000 -39.717900 0.002100
    CHANNELS 3 Yrotation Xrotation Zrotation
    JOINT LeftToe
    {
     OFFSET 0.000000 -4.965400 11.033500
     CHANNELS 3 Yrotation Xrotation Zrotation
     End Site
     {
      OFFSET 0.000000 -1.423100 5.872300
     }
    }
   }
  }
 }
}
MOTION
Frames: 5
Frame Time: 0.008333
0.000000 85.388000 0.000000 0.000000 -5.767877 0.000000 0.000000 11.653817 0.000000 0.000000 -5.885947 0.000000 0.000000 -0.000000 0.000000 0.000000 -0.000000 0.000000 0.000000 12.528835 0.000000 0.000000 0.711642 0.000000 0.000000 -0.000000 0.000000 0.000000 0.000000 -90.000000 0.000000 -2.309062 0.000000 0.000000 2.309062 0.000000 0.000000 -0.000000 0.000000 0.000000 -0.000000 90.000000 0.000000 -2.309062 0.000000 0.000000 2.309062 0.000000 0.000000 8.520406 0.000000 0.000000 1.905762 0.000000 -0.000000 -4.658285 0.000000 0.000000 -0.000000 0.000000 0.000000 8.520406 0.000000 0.000000 1.905762 0.000000 -0.000000 -4.658285 0.000000 0.000000 -0.000000 0.000000
-67.734689 48.724913 15.111139 173.516093 -26.775043 0.184449 -0.383588 12.565727 1.697856 -0.341909 7.194269 1.363900 -0.391191 8.993813 1.701907 -0.332738 7.194140 1.364877 -0.173508 17.309801 -2.720512 0.601037 -3.612686 -4.963481 6.696500 5.239416 -4.544143 -0.635833 -22.541229 -9.959827 38.796087 -57.479989 -25.153093 11.227456 6.999053 -35.931257 -2.142469 1.596424 -4.997225 5.473248 -26.072736 -1.722452 -62.757595 -39.174589 39.605565 -9.514712 12.666411 35.140462 21.155999 -56.015089 -29.465077 -102.887338 68.036169 -94.141345 1.662936 -2.930726 2.154218 0.136193 -0.842980 0.056985 -2.277748 -57.551492 11.563439 95.668845 82.362235 93.808650 -6.395458 -8.692994 -1.191344 0.288945 0.669341 0.134441
-67.735205 48.725391 15.110794 173.503920 -26.773640 0.191401 -0.382233 12.564859 1.694028 -0.337419 7.194296 1.364354 -0.388538 8.993631 1.701002 -0.332599 7.194339 1.363808 -0.188927 17.295075 -2.723017 0.573628 -3.639499 -4.966558 6.698534 5.241263 -4.543936 -0.633874 -22.544430 -9.958209 38.791443 -57.478613 -25.146476 11.230190 6.997345 -35.931108 -2.140850 1.596205 -4.995991 5.469468 -26.073379 -1.719603 -62.752767 -39.174980 39.606203 -9.514526 12.663168 35.132453 21.168181 -56.015787 -29.466703 -102.883361 68.035082 -94.138863 1.666077 -2.933320 2.156943 0.133365 -0.839199 0.055999 -2.270820 -57.550318 11.564619 95.661685 82.360955 93.799094 -6.397192 -8.693696 -1.189938 0.283393 0.667078 0.131296
-67.734381 48.726224 15.109941 173.500299 -26.776186 0.186779 -0.386155 12.569069 1.699946 -0.332966 7.193045 1.364015 -0.385433 8.993535 1.699474 -0.332228 7.194383 1.363857 -0.198758 17.287047 -2.724656 0.527159 -3.678006 -4.969990 6.696356 5.245218 -4.544121 -0.631064 -22.549096 -9.957820 38.796569 -57.479681 -25.146791 11.225364 6.997644 -35.933262 -2.140420 1.595240 -4.996222 5.467684 -26.072911 -1.715686 -62.749779 -39.179587 39.597631 -9.523156 12.663459 35.132055 21.156614 -56.014466 -29.448295 -102.876045 68.031382 -94.132724 1.666569 -2.935792 2.156463 0.136549 -0.836071 0.057517 -2.277352 -57.548092 11.576533 95.684203 82.363886 93.823905 -6.398988 -8.695832 -1.188177 0.284972 0.665724 0.128156
-67.734730 48.726305 15.110510 173.503162 -26.768168 0.185130 -0.390290 12.561343 1.701977 -0.333586 7.191726 1.363781 -0.388692 8.994316 1.700084 -0.335279 7.187942 1.365561 -0.225242 17.269358 -2.736249 0.491129 -3.704362 -4.976604 6.700296 5.252876 -4.547227 -0.625739 -22.555295 -9.957313 38.805656 -57.478199 -25.146599 11.216727 7.000773 -35.937209 -2.135931 1.599311 -5.003592 5.474254 -26.079037 -1.704411 -62.745263 -39.186952 39.577378 -9.522131 12.665436 35.136472 21.156464 -56.019513 -29.451869 -102.864735 68.029103 -94.120234 1.670951 -2.936182 2.157821 0.136109 -0.832596 0.056678 -2.280287 -57.556919 11.577164 95.667457 82.365418 93.809501 -6.404299 -8.691551 -1.185923 0.283298 0.662737 0.125430
